<svg xmlns="http://www.w3.org/2000/svg" viewBox="0 0 512 512" width="512" height="512" fill="none"><rect x="0" y="0" width="512" height="512" rx="104" fill="#0f0f15"/>
<g class="globe"><line x1="165.8" y1="375.9" x2="158.0" y2="342.3" stroke="#d6d6db" stroke-width="1.14" opacity="0.52"/><line x1="158.0" y1="342.3" x2="229.1" y2="395.7" stroke="#d6d6db" stroke-width="1.19" opacity="0.57"/><line x1="229.1" y1="395.7" x2="165.8" y2="375.9" stroke="#d6d6db" stroke-width="1.10" opacity="0.50"/><line x1="179.5" y1="283.0" x2="237.2" y2="341.2" stroke="#d6d6db" stroke-width="1.34" opacity="0.68"/><line x1="237.2" y1="341.2" x2="158.0" y2="342.3" stroke="#d6d6db" stroke-width="1.28" opacity="0.63"/><line x1="158.0" y1="342.3" x2="179.5" y2="283.0" stroke="#d6d6db" stroke-width="1.28" opacity="0.64"/><line x1="300.5" y1="373.8" x2="229.1" y2="395.7" stroke="#d6d6db" stroke-width="1.20" opacity="0.57"/><line x1="229.1" y1="395.7" x2="237.2" y2="341.2" stroke="#d6d6db" stroke-width="1.25" opacity="0.61"/><line x1="237.2" y1="341.2" x2="300.5" y2="373.8" stroke="#d6d6db" stroke-width="1.29" opacity="0.64"/><line x1="229.1" y1="395.7" x2="231.3" y2="396.9" stroke="#d6d6db" stroke-width="1.05" opacity="0.46"/><line x1="231.3" y1="396.9" x2="165.8" y2="375.9" stroke="#d6d6db" stroke-width="1.00" opacity="0.41"/><line x1="300.5" y1="373.8" x2="310.5" y2="395.7" stroke="#d6d6db" stroke-width="1.15" opacity="0.53"/><line x1="310.5" y1="395.7" x2="229.1" y2="395.7" stroke="#d6d6db" stroke-width="1.11" opacity="0.50"/><line x1="304.2" y1="375.9" x2="231.3" y2="396.9" stroke="#d6d6db" stroke-width="0.91" opacity="0.34"/><line x1="231.3" y1="396.9" x2="310.5" y2="395.7" stroke="#d6d6db" stroke-width="1.00" opacity="0.42"/><line x1="310.5" y1="395.7" x2="304.2" y2="375.9" stroke="#d6d6db" stroke-width="0.96" opacity="0.39"/><line x1="231.3" y1="396.9" x2="161.6" y2="344.3" stroke="#d6d6db" stroke-width="0.91" opacity="0.34"/><line x1="161.6" y1="344.3" x2="165.8" y2="375.9" stroke="#d6d6db" stroke-width="0.96" opacity="0.38"/><line x1="304.2" y1="375.9" x2="243.0" y2="344.3" stroke="#d6d6db" stroke-width="0.82" opacity="0.27"/><line x1="243.0" y1="344.3" x2="231.3" y2="396.9" stroke="#d6d6db" stroke-width="0.86" opacity="0.30"/><line x1="185.6" y1="286.3" x2="161.6" y2="344.3" stroke="#d6d6db" stroke-width="0.81" opacity="0.27"/><line x1="161.6" y1="344.3" x2="243.0" y2="344.3" stroke="#d6d6db" stroke-width="0.82" opacity="0.27"/><line x1="243.0" y1="344.3" x2="185.6" y2="286.3" stroke="#d6d6db" stroke-width="0.76" opacity="0.23"/><line x1="161.6" y1="344.3" x2="116.3" y2="310.6" stroke="#d6d6db" stroke-width="0.96" opacity="0.38"/><line x1="116.3" y1="310.6" x2="165.8" y2="375.9" stroke="#d6d6db" stroke-width="1.05" opacity="0.45"/><line x1="185.6" y1="286.3" x2="127.9" y2="257.9" stroke="#d6d6db" stroke-width="0.81" opacity="0.27"/><line x1="127.9" y1="257.9" x2="161.6" y2="344.3" stroke="#d6d6db" stroke-width="0.87" opacity="0.31"/><line x1="108.5" y1="229.0" x2="116.3" y2="310.6" stroke="#d6d6db" stroke-width="1.04" opacity="0.45"/><line x1="116.3" y1="310.6" x2="127.9" y2="257.9" stroke="#d6d6db" stroke-width="0.96" opacity="0.38"/><line x1="127.9" y1="257.9" x2="108.5" y2="229.0" stroke="#d6d6db" stroke-width="0.95" opacity="0.38"/><line x1="116.3" y1="310.6" x2="158.0" y2="342.3" stroke="#d6d6db" stroke-width="1.13" opacity="0.52"/><line x1="108.5" y1="229.0" x2="124.4" y2="256.0" stroke="#d6d6db" stroke-width="1.13" opacity="0.52"/><line x1="124.4" y1="256.0" x2="116.3" y2="310.6" stroke="#d6d6db" stroke-width="1.13" opacity="0.52"/><line x1="158.0" y1="342.3" x2="124.4" y2="256.0" stroke="#d6d6db" stroke-width="1.22" opacity="0.59"/><line x1="124.4" y1="256.0" x2="179.5" y2="283.0" stroke="#d6d6db" stroke-width="1.28" opacity="0.64"/><line x1="310.5" y1="395.7" x2="371.0" y2="342.3" stroke="#d6d6db" stroke-width="1.00" opacity="0.42"/><line x1="371.0" y1="342.3" x2="304.2" y2="375.9" stroke="#d6d6db" stroke-width="0.91" opacity="0.35"/><line x1="300.5" y1="373.8" x2="368.9" y2="341.2" stroke="#d6d6db" stroke-width="1.20" opacity="0.58"/><line x1="368.9" y1="341.2" x2="310.5" y2="395.7" stroke="#d6d6db" stroke-width="1.11" opacity="0.50"/><line x1="403.5" y1="283.0" x2="371.0" y2="342.3" stroke="#d6d6db" stroke-width="1.00" opacity="0.42"/><line x1="371.0" y1="342.3" x2="368.9" y2="341.2" stroke="#d6d6db" stroke-width="1.06" opacity="0.46"/><line x1="368.9" y1="341.2" x2="403.5" y2="283.0" stroke="#d6d6db" stroke-width="1.11" opacity="0.50"/><line x1="237.2" y1="341.2" x2="323.6" y2="307.4" stroke="#d6d6db" stroke-width="1.34" opacity="0.68"/><line x1="323.6" y1="307.4" x2="300.5" y2="373.8" stroke="#d6d6db" stroke-width="1.29" opacity="0.64"/><line x1="179.5" y1="283.0" x2="252.5" y2="254.1" stroke="#d6d6db" stroke-width="1.37" opacity="0.71"/><line x1="252.5" y1="254.1" x2="237.2" y2="341.2" stroke="#d6d6db" stroke-width="1.37" opacity="0.70"/><line x1="326.4" y1="225.7" x2="323.6" y2="307.4" stroke="#d6d6db" stroke-width="1.34" opacity="0.69"/><line x1="323.6" y1="307.4" x2="252.5" y2="254.1" stroke="#d6d6db" stroke-width="1.37" opacity="0.71"/><line x1="252.5" y1="254.1" x2="326.4" y2="225.7" stroke="#d6d6db" stroke-width="1.38" opacity="0.71"/><line x1="124.4" y1="256.0" x2="182.7" y2="201.4" stroke="#d6d6db" stroke-width="1.27" opacity="0.63"/><line x1="182.7" y1="201.4" x2="179.5" y2="283.0" stroke="#d6d6db" stroke-width="1.34" opacity="0.68"/><line x1="108.5" y1="229.0" x2="141.0" y2="169.7" stroke="#d6d6db" stroke-width="1.10" opacity="0.49"/><line x1="141.0" y1="169.7" x2="124.4" y2="256.0" stroke="#d6d6db" stroke-width="1.18" opacity="0.56"/><line x1="207.8" y1="136.1" x2="182.7" y2="201.4" stroke="#d6d6db" stroke-width="1.28" opacity="0.63"/><line x1="182.7" y1="201.4" x2="141.0" y2="169.7" stroke="#d6d6db" stroke-width="1.24" opacity="0.60"/><line x1="141.0" y1="169.7" x2="207.8" y2="136.1" stroke="#d6d6db" stroke-width="1.19" opacity="0.56"/><line x1="127.9" y1="257.9" x2="143.1" y2="170.8" stroke="#d6d6db" stroke-width="0.90" opacity="0.34"/><line x1="143.1" y1="170.8" x2="108.5" y2="229.0" stroke="#d6d6db" stroke-width="0.99" opacity="0.41"/><line x1="185.6" y1="286.3" x2="188.4" y2="204.6" stroke="#d6d6db" stroke-width="0.76" opacity="0.22"/><line x1="188.4" y1="204.6" x2="127.9" y2="257.9" stroke="#d6d6db" stroke-width="0.81" opacity="0.27"/><line x1="211.5" y1="138.2" x2="143.1" y2="170.8" stroke="#d6d6db" stroke-width="0.90" opacity="0.33"/><line x1="143.1" y1="170.8" x2="188.4" y2="204.6" stroke="#d6d6db" stroke-width="0.85" opacity="0.30"/><line x1="188.4" y1="204.6" x2="211.5" y2="138.2" stroke="#d6d6db" stroke-width="0.81" opacity="0.27"/><line x1="243.0" y1="344.3" x2="259.5" y2="257.9" stroke="#d6d6db" stroke-width="0.73" opacity="0.21"/><line x1="259.5" y1="257.9" x2="185.6" y2="286.3" stroke="#d6d6db" stroke-width="0.72" opacity="0.20"/><line x1="304.2" y1="375.9" x2="329.3" y2="310.6" stroke="#d6d6db" stroke-width="0.82" opacity="0.28"/><line x1="329.3" y1="310.6" x2="243.0" y2="344.3" stroke="#d6d6db" stroke-width="0.77" opacity="0.24"/><line x1="332.5" y1="229.0" x2="259.5" y2="257.9" stroke="#d6d6db" stroke-width="0.73" opacity="0.20"/><line x1="259.5" y1="257.9" x2="329.3" y2="310.6" stroke="#d6d6db" stroke-width="0.74" opacity="0.21"/><line x1="329.3" y1="310.6" x2="332.5" y2="229.0" stroke="#d6d6db" stroke-width="0.76" opacity="0.23"/><line x1="346.2" y1="136.1" x2="395.7" y2="201.4" stroke="#d6d6db" stroke-width="1.05" opacity="0.46"/><line x1="395.7" y1="201.4" x2="350.4" y2="167.7" stroke="#d6d6db" stroke-width="1.14" opacity="0.53"/><line x1="350.4" y1="167.7" x2="346.2" y2="136.1" stroke="#d6d6db" stroke-width="1.14" opacity="0.53"/><line x1="403.5" y1="283.0" x2="384.1" y2="254.1" stroke="#d6d6db" stroke-width="1.15" opacity="0.53"/><line x1="384.1" y1="254.1" x2="395.7" y2="201.4" stroke="#d6d6db" stroke-width="1.14" opacity="0.53"/><line x1="395.7" y1="201.4" x2="403.5" y2="283.0" stroke="#d6d6db" stroke-width="1.06" opacity="0.46"/><line x1="326.4" y1="225.7" x2="350.4" y2="167.7" stroke="#d6d6db" stroke-width="1.29" opacity="0.64"/><line x1="350.4" y1="167.7" x2="384.1" y2="254.1" stroke="#d6d6db" stroke-width="1.23" opacity="0.60"/><line x1="384.1" y1="254.1" x2="326.4" y2="225.7" stroke="#d6d6db" stroke-width="1.29" opacity="0.64"/><line x1="350.4" y1="167.7" x2="280.7" y2="115.1" stroke="#d6d6db" stroke-width="1.19" opacity="0.57"/><line x1="280.7" y1="115.1" x2="346.2" y2="136.1" stroke="#d6d6db" stroke-width="1.10" opacity="0.50"/><line x1="326.4" y1="225.7" x2="269.0" y2="167.7" stroke="#d6d6db" stroke-width="1.34" opacity="0.68"/><line x1="269.0" y1="167.7" x2="350.4" y2="167.7" stroke="#d6d6db" stroke-width="1.28" opacity="0.64"/><line x1="207.8" y1="136.1" x2="280.7" y2="115.1" stroke="#d6d6db" stroke-width="1.19" opacity="0.57"/><line x1="280.7" y1="115.1" x2="269.0" y2="167.7" stroke="#d6d6db" stroke-width="1.24" opacity="0.61"/><line x1="269.0" y1="167.7" x2="207.8" y2="136.1" stroke="#d6d6db" stroke-width="1.28" opacity="0.64"/><line x1="280.7" y1="115.1" x2="282.9" y2="116.3" stroke="#d6d6db" stroke-width="1.05" opacity="0.45"/><line x1="282.9" y1="116.3" x2="346.2" y2="136.1" stroke="#d6d6db" stroke-width="1.00" opacity="0.41"/><line x1="207.8" y1="136.1" x2="201.5" y2="116.3" stroke="#d6d6db" stroke-width="1.14" opacity="0.52"/><line x1="201.5" y1="116.3" x2="280.7" y2="115.1" stroke="#d6d6db" stroke-width="1.10" opacity="0.49"/><line x1="211.5" y1="138.2" x2="282.9" y2="116.3" stroke="#d6d6db" stroke-width="0.90" opacity="0.34"/><line x1="282.9" y1="116.3" x2="201.5" y2="116.3" stroke="#d6d6db" stroke-width="0.99" opacity="0.41"/><line x1="201.5" y1="116.3" x2="211.5" y2="138.2" stroke="#d6d6db" stroke-width="0.95" opacity="0.38"/><line x1="282.9" y1="116.3" x2="354.0" y2="169.7" stroke="#d6d6db" stroke-width="0.91" opacity="0.34"/><line x1="354.0" y1="169.7" x2="346.2" y2="136.1" stroke="#d6d6db" stroke-width="0.96" opacity="0.39"/><line x1="211.5" y1="138.2" x2="274.8" y2="170.8" stroke="#d6d6db" stroke-width="0.81" opacity="0.27"/><line x1="274.8" y1="170.8" x2="282.9" y2="116.3" stroke="#d6d6db" stroke-width="0.85" opacity="0.30"/><line x1="332.5" y1="229.0" x2="354.0" y2="169.7" stroke="#d6d6db" stroke-width="0.82" opacity="0.27"/><line x1="354.0" y1="169.7" x2="274.8" y2="170.8" stroke="#d6d6db" stroke-width="0.82" opacity="0.28"/><line x1="274.8" y1="170.8" x2="332.5" y2="229.0" stroke="#d6d6db" stroke-width="0.76" opacity="0.23"/><line x1="354.0" y1="169.7" x2="395.7" y2="201.4" stroke="#d6d6db" stroke-width="0.97" opacity="0.39"/><line x1="332.5" y1="229.0" x2="387.6" y2="256.0" stroke="#d6d6db" stroke-width="0.82" opacity="0.27"/><line x1="387.6" y1="256.0" x2="354.0" y2="169.7" stroke="#d6d6db" stroke-width="0.88" opacity="0.32"/><line x1="395.7" y1="201.4" x2="387.6" y2="256.0" stroke="#d6d6db" stroke-width="0.97" opacity="0.39"/><line x1="387.6" y1="256.0" x2="403.5" y2="283.0" stroke="#d6d6db" stroke-width="0.97" opacity="0.39"/><line x1="384.1" y1="254.1" x2="323.6" y2="307.4" stroke="#d6d6db" stroke-width="1.29" opacity="0.64"/><line x1="368.9" y1="341.2" x2="384.1" y2="254.1" stroke="#d6d6db" stroke-width="1.20" opacity="0.57"/><line x1="323.6" y1="307.4" x2="368.9" y2="341.2" stroke="#d6d6db" stroke-width="1.25" opacity="0.61"/><line x1="269.0" y1="167.7" x2="182.7" y2="201.4" stroke="#d6d6db" stroke-width="1.33" opacity="0.67"/><line x1="252.5" y1="254.1" x2="269.0" y2="167.7" stroke="#d6d6db" stroke-width="1.37" opacity="0.70"/><line x1="182.7" y1="201.4" x2="252.5" y2="254.1" stroke="#d6d6db" stroke-width="1.36" opacity="0.70"/><line x1="201.5" y1="116.3" x2="143.1" y2="170.8" stroke="#d6d6db" stroke-width="0.99" opacity="0.41"/><line x1="141.0" y1="169.7" x2="201.5" y2="116.3" stroke="#d6d6db" stroke-width="1.10" opacity="0.49"/><line x1="143.1" y1="170.8" x2="141.0" y2="169.7" stroke="#d6d6db" stroke-width="1.04" opacity="0.45"/><line x1="274.8" y1="170.8" x2="259.5" y2="257.9" stroke="#d6d6db" stroke-width="0.73" opacity="0.21"/><line x1="188.4" y1="204.6" x2="274.8" y2="170.8" stroke="#d6d6db" stroke-width="0.76" opacity="0.23"/><line x1="259.5" y1="257.9" x2="188.4" y2="204.6" stroke="#d6d6db" stroke-width="0.73" opacity="0.20"/><line x1="387.6" y1="256.0" x2="371.0" y2="342.3" stroke="#d6d6db" stroke-width="0.92" opacity="0.35"/><line x1="329.3" y1="310.6" x2="387.6" y2="256.0" stroke="#d6d6db" stroke-width="0.83" opacity="0.28"/><line x1="371.0" y1="342.3" x2="329.3" y2="310.6" stroke="#d6d6db" stroke-width="0.86" opacity="0.31"/><circle cx="165.8" cy="375.9" r="1.95" fill="#d6d6db" opacity="0.60"/><circle cx="304.2" cy="375.9" r="1.62" fill="#d6d6db" opacity="0.45"/><circle cx="207.8" cy="136.1" r="2.28" fill="#d6d6db" opacity="0.75"/><circle cx="346.2" cy="136.1" r="1.95" fill="#d6d6db" opacity="0.60"/><circle cx="326.4" cy="225.7" r="2.51" fill="#d6d6db" opacity="0.86"/><circle cx="300.5" cy="373.8" r="2.30" fill="#d6d6db" opacity="0.76"/><circle cx="211.5" cy="138.2" r="1.60" fill="#d6d6db" opacity="0.44"/><circle cx="185.6" cy="286.3" r="1.39" fill="#d6d6db" opacity="0.34"/><circle cx="332.5" cy="229.0" r="1.40" fill="#d6d6db" opacity="0.35"/><circle cx="403.5" cy="283.0" r="1.97" fill="#d6d6db" opacity="0.61"/><circle cx="108.5" cy="229.0" r="1.93" fill="#d6d6db" opacity="0.59"/><circle cx="179.5" cy="283.0" r="2.50" fill="#d6d6db" opacity="0.85"/><circle cx="158.0" cy="342.3" r="2.27" fill="#d6d6db" opacity="0.75"/><circle cx="237.2" cy="341.2" r="2.48" fill="#d6d6db" opacity="0.84"/><circle cx="229.1" cy="395.7" r="2.16" fill="#d6d6db" opacity="0.70"/><circle cx="310.5" cy="395.7" r="1.96" fill="#d6d6db" opacity="0.61"/><circle cx="231.3" cy="396.9" r="1.75" fill="#d6d6db" opacity="0.51"/><circle cx="243.0" cy="344.3" r="1.43" fill="#d6d6db" opacity="0.36"/><circle cx="161.6" cy="344.3" r="1.62" fill="#d6d6db" opacity="0.45"/><circle cx="127.9" cy="257.9" r="1.61" fill="#d6d6db" opacity="0.44"/><circle cx="116.3" cy="310.6" r="1.94" fill="#d6d6db" opacity="0.59"/><circle cx="124.4" cy="256.0" r="2.26" fill="#d6d6db" opacity="0.74"/><circle cx="368.9" cy="341.2" r="2.17" fill="#d6d6db" opacity="0.70"/><circle cx="371.0" cy="342.3" r="1.77" fill="#d6d6db" opacity="0.51"/><circle cx="252.5" cy="254.1" r="2.60" fill="#d6d6db" opacity="0.90"/><circle cx="323.6" cy="307.4" r="2.49" fill="#d6d6db" opacity="0.85"/><circle cx="141.0" cy="169.7" r="2.13" fill="#d6d6db" opacity="0.69"/><circle cx="182.7" cy="201.4" r="2.47" fill="#d6d6db" opacity="0.84"/><circle cx="188.4" cy="204.6" r="1.41" fill="#d6d6db" opacity="0.35"/><circle cx="143.1" cy="170.8" r="1.73" fill="#d6d6db" opacity="0.50"/><circle cx="329.3" cy="310.6" r="1.43" fill="#d6d6db" opacity="0.36"/><circle cx="259.5" cy="257.9" r="1.30" fill="#d6d6db" opacity="0.30"/><circle cx="395.7" cy="201.4" r="1.96" fill="#d6d6db" opacity="0.61"/><circle cx="384.1" cy="254.1" r="2.29" fill="#d6d6db" opacity="0.76"/><circle cx="350.4" cy="167.7" r="2.28" fill="#d6d6db" opacity="0.75"/><circle cx="269.0" cy="167.7" r="2.47" fill="#d6d6db" opacity="0.84"/><circle cx="280.7" cy="115.1" r="2.15" fill="#d6d6db" opacity="0.69"/><circle cx="201.5" cy="116.3" r="1.94" fill="#d6d6db" opacity="0.59"/><circle cx="282.9" cy="116.3" r="1.74" fill="#d6d6db" opacity="0.50"/><circle cx="274.8" cy="170.8" r="1.42" fill="#d6d6db" opacity="0.36"/><circle cx="354.0" cy="169.7" r="1.63" fill="#d6d6db" opacity="0.45"/><circle cx="387.6" cy="256.0" r="1.64" fill="#d6d6db" opacity="0.46"/></g>
<g class="mark"><path d="M338.0 320.0L276.6 357.9L205.4 346.8L158.5 292.1L158.5 219.9L205.4 165.2L276.6 154.1L338.0 192.0L301.7 220.3L267.5 199.1L227.8 205.3L201.6 235.9L201.6 276.1L227.8 306.7L267.5 312.9L301.7 291.7Z" fill="#e10600"/><path d="M330.4 339.5L355.0 308.0L309.3 272.3L284.7 303.8ZM355.0 204.0L330.4 172.5L284.7 208.2L309.3 239.7Z" fill="#e10600"/></g>
</svg>